<?xml version="1.0" standalone="no"?>
<!DOCTYPE svg PUBLIC "-//W3C//DTD SVG 20010904//EN"
 "http://www.w3.org/TR/2001/REC-SVG-20010904/DTD/svg10.dtd">
<svg version="1.0" xmlns="http://www.w3.org/2000/svg"
 width="1254.000000pt" height="1254.000000pt" viewBox="0 0 1254.000000 1254.000000"
 preserveAspectRatio="xMidYMid meet">

<g transform="translate(0.000000,1254.000000) scale(0.100000,-0.100000)"
fill="#000000" stroke="none">
<path d="M0 6270 l0 -6270 6270 0 6270 0 0 6270 0 6270 -6270 0 -6270 0 0
-6270z m6289 5861 c20 -39 20 -39 1 -44 -11 -3 -22 -1 -25 4 -3 4 -12 6 -20 3
-12 -5 -11 2 3 35 9 22 18 41 19 41 2 0 12 -18 22 -39z m-9 -87 c0 -8 -4 -14
-10 -14 -5 0 -10 9 -10 21 0 11 5 17 10 14 6 -3 10 -13 10 -21z m10 -113 c0
-27 -19 -36 -37 -18 -18 18 -9 37 18 37 12 0 19 -7 19 -19z m25 -146 c46 -45
19 -118 -43 -118 -43 0 -72 28 -72 70 0 67 68 96 115 48z m-17 -237 c30 -30
-6 -76 -48 -63 -20 6 -29 53 -13 68 11 11 48 8 61 -5z m10 -195 c50 -43 22
-113 -43 -113 -62 0 -87 71 -39 109 33 26 55 26 82 4z m-415 -60 c6 -60 4 -84
-7 -72 -9 10 -17 139 -8 139 5 0 12 -30 15 -67z m767 15 c0 -58 -9 -100 -19
-94 -10 6 0 146 10 146 5 0 9 -24 9 -52z m-861 -65 c1 -13 -3 -23 -9 -23 -6 0
-10 27 -9 63 1 59 2 60 10 22 4 -22 8 -50 8 -62z m960 65 c-1 -18 -5 -46 -9
-63 -6 -24 -8 -17 -9 33 0 35 3 62 9 62 6 0 9 -15 9 -32z m-1219 -62 c0 -3 -4
-8 -10 -11 -5 -3 -10 -1 -10 4 0 6 5 11 10 11 6 0 10 -2 10 -4z m1480 -6 c0
-5 -4 -10 -10 -10 -5 0 -10 5 -10 10 0 6 5 10 10 10 6 0 10 -4 10 -10z m-1570
-10 c0 -5 -5 -10 -11 -10 -5 0 -7 5 -4 10 3 6 8 10 11 10 2 0 4 -4 4 -10z
m-80 -14 c0 -3 -4 -8 -10 -11 -5 -3 -10 -1 -10 4 0 6 5 11 10 11 6 0 10 -2 10
-4z m-199 -32 c17 -21 0 -49 -32 -49 -18 0 -25 6 -27 24 -6 38 34 55 59 25z
m2244 -19 c0 -35 -31 -47 -51 -20 -18 25 0 57 29 53 17 -2 22 -10 22 -33z
m-1131 -23 c2 -4 1 -14 -4 -22 -7 -11 -12 -12 -21 -3 -6 6 -8 16 -5 22 8 13
23 14 30 3z m-6 -148 c5 -4 -85 -12 -268 -24 -409 -27 -754 -93 -1120 -216
-662 -222 -1247 -578 -1732 -1053 -54 -53 -98 -99 -98 -103 0 -12 99 -60 165
-80 l60 -18 -95 4 c-52 3 -117 12 -144 21 -60 18 -52 24 -192 -139 -245 -284
-456 -610 -635 -981 -207 -431 -341 -869 -414 -1355 -35 -235 -64 -600 -47
-600 4 0 56 49 117 110 l110 109 73 -68 c58 -55 74 -65 83 -54 7 7 16 75 21
151 45 708 313 1464 734 2079 405 590 924 1042 1565 1362 520 260 1008 400
1563 447 l68 6 -48 49 -48 49 75 78 c41 42 103 107 137 144 l62 66 134 -141
134 -141 -45 -51 -46 -50 59 -7 c33 -3 109 -11 170 -17 572 -57 1273 -316
1809 -668 647 -426 1106 -945 1455 -1646 255 -511 386 -994 435 -1607 4 -41
13 -84 21 -95 14 -18 17 -16 82 47 l67 67 130 -127 130 -127 -7 -165 c-40
-878 -325 -1716 -833 -2450 -345 -498 -847 -969 -1370 -1283 -652 -394 -1407
-626 -2122 -654 -151 -5 -175 -9 -190 -25 -16 -18 -17 -18 -37 1 -18 16 -44
19 -172 25 -273 11 -607 61 -904 136 -531 134 -1117 411 -1560 739 -162 120
-430 345 -430 362 0 21 27 4 108 -69 288 -257 611 -475 972 -656 501 -251 943
-387 1475 -456 234 -30 518 -44 459 -23 -6 2 -53 49 -104 104 l-93 101 62 62
c58 59 61 63 44 78 -12 11 -55 20 -138 28 -369 36 -818 147 -1180 292 -821
330 -1511 905 -1978 1646 -377 600 -592 1243 -647 1936 -5 71 -12 132 -15 135
-3 3 -39 -28 -80 -69 l-75 -75 -115 115 -115 115 0 -67 c0 -37 7 -147 16 -245
66 -767 332 -1509 779 -2183 138 -208 289 -395 462 -571 130 -132 159 -169
135 -169 -13 0 -227 223 -331 344 -352 412 -635 912 -834 1476 -150 425 -243
921 -248 1320 0 63 -6 121 -11 128 -7 8 -7 16 1 25 6 8 8 16 5 19 -9 10 16
383 37 548 112 877 483 1729 1044 2395 51 61 105 121 119 134 14 14 26 27 26
31 0 3 -27 25 -61 49 -70 49 -138 137 -170 219 -33 82 -33 240 0 331 42 120
126 223 254 310 68 46 77 34 13 -16 -112 -86 -194 -223 -204 -338 -12 -160 65
-335 201 -454 l37 -33 118 113 c481 467 1052 814 1708 1039 288 98 568 162
909 205 195 25 493 36 513 19z m347 -5 c500 -33 1058 -183 1540 -413 468 -223
804 -453 1195 -817 l153 -143 69 73 c122 130 187 310 160 442 -23 115 -95 228
-196 308 -31 24 -54 46 -51 49 10 10 122 -73 185 -137 118 -120 176 -287 152
-435 -23 -136 -106 -265 -216 -335 l-46 -28 68 -74 c579 -638 989 -1526 1116
-2420 26 -183 46 -410 46 -519 -1 -119 -17 -40 -34 165 -45 539 -137 942 -323
1415 -56 143 -234 506 -303 620 -29 47 -61 100 -71 118 -78 135 -238 354 -385
527 -144 171 -125 159 -219 135 -43 -11 -108 -20 -144 -20 l-66 1 71 23 c72
23 154 64 154 77 0 10 -180 180 -295 280 -240 205 -501 391 -712 505 -289 156
-428 222 -644 304 -446 170 -897 263 -1379 286 -145 7 -185 13 -142 24 27 6
105 4 317 -11z m-2707 -232 c36 -69 40 -90 15 -85 -24 5 -93 120 -80 136 18
23 32 12 65 -51z m4761 54 c11 -7 7 -22 -25 -75 -35 -61 -51 -75 -67 -60 -7 7
60 144 71 144 4 0 13 -4 21 -9z m-4662 -227 c3 -8 1 -20 -6 -27 -14 -14 -47
15 -37 32 10 16 36 13 43 -5z m4540 0 c8 -21 -13 -42 -28 -27 -13 13 -5 43 11
43 6 0 13 -7 17 -16z m-5969 -226 c7 -7 12 -24 12 -38 0 -14 5 -31 10 -38 7
-9 7 -9 -2 -2 -7 6 -24 10 -40 10 -16 0 -31 7 -36 18 -21 40 25 81 56 50z
m7412 -2 c6 -8 10 -25 8 -38 -2 -18 -10 -24 -38 -26 -19 -2 -37 -7 -40 -10 -3
-4 -14 -14 -25 -22 -17 -12 -16 -10 3 11 12 14 22 36 22 50 0 44 44 66 70 35z
m-5832 -40 c6 -27 -11 -38 -33 -22 -11 8 -16 19 -12 30 9 22 41 17 45 -8z
m4241 10 c10 -11 7 -17 -11 -30 -19 -13 -23 -14 -30 -2 -19 34 17 61 41 32z
m-5719 -107 c0 -24 -23 -21 -28 4 -2 10 3 17 12 17 10 0 16 -9 16 -21z m7188
4 c-5 -26 -33 -28 -35 -3 -1 14 4 20 18 20 14 0 19 -6 17 -17z m-5632 -54 c10
-17 -13 -36 -27 -22 -12 12 -4 33 11 33 5 0 12 -5 16 -11z m4069 -9 c0 -7 -6
-15 -12 -17 -8 -3 -13 4 -13 17 0 13 5 20 13 18 6 -3 12 -11 12 -18z m-6090
-1159 c2 -4 0 -13 -5 -20 -6 -11 -22 -6 -74 23 -68 38 -74 44 -55 63 8 8 27 1
70 -24 33 -20 61 -39 64 -42z m8225 60 c9 -17 2 -24 -57 -55 -56 -30 -70 -34
-81 -23 -11 12 -2 21 55 55 37 23 69 42 70 42 1 0 7 -9 13 -19z m-8112 -134
c2 -11 -3 -17 -17 -17 -23 0 -35 15 -26 31 10 15 39 6 43 -14z m7902 3 c0 -13
-7 -20 -20 -20 -13 0 -20 7 -20 20 0 13 7 20 20 20 13 0 20 -7 20 -20z m-7662
-137 c3 -17 -2 -23 -15 -23 -25 0 -43 19 -36 37 9 22 48 11 51 -14z m7427 17
c9 -15 -14 -40 -36 -40 -22 0 -27 35 -6 43 21 9 36 8 42 -3z m-7290 -90 c11
-17 -5 -32 -21 -19 -8 6 -14 15 -14 20 0 12 27 11 35 -1z m7140 0 c3 -6 -1
-13 -10 -16 -19 -8 -30 0 -20 15 8 14 22 14 30 1z m-8310 -1420 c0 -20 -6 -26
-28 -28 -29 -4 -44 16 -33 44 4 10 15 14 33 12 22 -2 28 -8 28 -28z m9500 0
c0 -18 -6 -26 -23 -28 -24 -4 -38 18 -28 44 3 9 15 14 28 12 17 -2 23 -10 23
-28z m-9565 -390 c0 -5 -4 -10 -10 -10 -5 0 -10 5 -10 10 0 6 5 10 10 10 6 0
10 -4 10 -10z m9600 -80 c0 -5 -2 -10 -4 -10 -3 0 -8 5 -11 10 -3 6 -1 10 4
10 6 0 11 -4 11 -10z m-9403 -102 c-3 -8 -6 -5 -6 6 -1 11 2 17 5 13 3 -3 4
-12 1 -19z m-184 -25 c-18 -2 -48 -2 -65 0 -18 2 -4 4 32 4 36 0 50 -2 33 -4z
m9620 0 c-18 -2 -48 -2 -65 0 -18 2 -4 4 32 4 36 0 50 -2 33 -4z m-9446 -160
c-2 -21 -4 -4 -4 37 0 41 2 58 4 38 2 -21 2 -55 0 -75z m-147 77 c0 -6 -30
-10 -71 -10 -44 0 -68 4 -64 10 3 6 35 10 71 10 36 0 64 -4 64 -10z m9615 0
c14 -6 -3 -9 -52 -9 -43 -1 -73 3 -73 9 0 12 97 12 125 0z m-258 -157 c-2 -21
-4 -4 -4 37 0 41 2 58 4 38 2 -21 2 -55 0 -75z m753 57 c0 -5 -4 -10 -10 -10
-5 0 -10 5 -10 10 0 6 5 10 10 10 6 0 10 -4 10 -10z m-10776 -41 c61 -28 53
-114 -12 -133 -83 -24 -129 102 -49 134 30 12 32 12 61 -1z m10913 -12 c7 -7
15 -27 19 -44 5 -26 1 -37 -19 -57 -33 -33 -71 -33 -102 -1 -38 38 -30 84 20
113 22 13 63 7 82 -11z m-11347 -32 c0 -9 10 -16 28 -16 l27 -2 -27 -4 c-20
-3 -28 -10 -28 -24 0 -18 -1 -18 -45 3 l-44 22 37 17 c47 22 52 22 52 4z m218
3 c17 -17 15 -45 -4 -52 -21 -8 -20 -8 -39 10 -15 15 -15 18 1 35 20 22 26 23
42 7z m716 -10 c7 -12 6 -21 -3 -32 -18 -22 -38 -20 -51 3 -7 15 -6 24 6 36
19 18 33 16 48 -7z m9886 1 c14 -24 -2 -49 -31 -49 -20 0 -36 40 -24 59 11 18
44 12 55 -10z m704 -4 c7 -20 -18 -49 -38 -42 -25 10 -32 38 -12 53 20 14 42
9 50 -11z m253 -9 c2 -2 -14 -12 -37 -23 -39 -20 -40 -20 -40 -2 0 14 -8 19
-32 21 l-33 1 33 4 c19 3 32 10 32 19 0 12 5 12 37 -1 20 -9 39 -17 40 -19z
m-11148 11 c8 -11 6 -18 -9 -32 -19 -17 -21 -17 -40 0 -15 14 -17 21 -9 32 6
7 19 13 29 13 10 0 23 -6 29 -13z m145 -4 c10 -26 -23 -48 -43 -29 -12 12 -12
18 -1 30 17 21 36 20 44 -1z m403 6 c15 -15 5 -39 -17 -39 -22 0 -32 24 -17
39 6 6 14 11 17 11 3 0 11 -5 17 -11z m9370 -5 c9 -23 -13 -40 -32 -24 -12 10
-13 16 -4 26 15 18 28 18 36 -2z m421 -7 c4 -22 -24 -33 -43 -17 -12 10 -13
16 -4 27 16 18 43 13 47 -10z m149 7 c3 -8 -2 -23 -11 -32 -15 -15 -17 -15
-32 0 -21 21 -11 48 16 48 11 0 23 -7 27 -16z m-442 -3 c7 -12 -12 -24 -25
-16 -11 7 -4 25 10 25 5 0 11 -4 15 -9z m-10575 -5 c0 -11 -19 -15 -25 -6 -3
5 1 10 9 10 9 0 16 -2 16 -4z m950 0 c0 -11 -19 -15 -25 -6 -3 5 1 10 9 10 9
0 16 -2 16 -4z m10575 -6 c-3 -5 -10 -10 -16 -10 -5 0 -9 5 -9 10 0 6 7 10 16
10 8 0 12 -4 9 -10z m-1168 -77 c-3 -10 -5 -4 -5 12 0 17 2 24 5 18 2 -7 2
-21 0 -30z m-9389 -160 c-21 -2 -55 -2 -75 0 -21 2 -4 4 37 4 41 0 58 -2 38
-4z m9630 0 c-21 -2 -55 -2 -75 0 -21 2 -4 4 37 4 41 0 58 -2 38 -4z m2 -87
c8 -2 -11 -4 -43 -5 -32 0 -56 3 -53 7 4 7 57 6 96 -2z m-9632 -3 c-15 -2 -42
-2 -60 0 -18 2 -6 4 27 4 33 0 48 -2 33 -4z m9592 -133 c0 -5 -4 -10 -10 -10
-5 0 -10 5 -10 10 0 6 5 10 10 10 6 0 10 -4 10 -10z m-9604 -97 c-10 -10 -19
5 -10 18 6 11 8 11 12 0 2 -7 1 -15 -2 -18z m9594 11 c0 -8 -5 -12 -10 -9 -6
4 -8 11 -5 16 9 14 15 11 15 -7z m-9525 -359 c0 -25 -4 -30 -24 -30 -32 0 -49
28 -31 50 7 9 23 15 34 13 16 -2 21 -10 21 -33z m9500 0 c0 -25 -4 -30 -24
-30 -32 0 -49 28 -31 50 7 9 23 15 34 13 16 -2 21 -10 21 -33z m-650 -1124
c-21 -43 -29 -39 -8 4 9 19 18 33 21 31 2 -2 -4 -18 -13 -35z m-40 -80 c-21
-43 -29 -39 -8 4 9 19 18 33 21 31 2 -2 -4 -18 -13 -35z m-7635 -160 c0 -14
-18 -23 -30 -16 -6 4 -8 11 -5 16 8 12 35 12 35 0z m7510 -71 c-6 -11 -13 -20
-16 -20 -2 0 0 9 6 20 6 11 13 20 16 20 2 0 0 -9 -6 -20z m-7646 -25 c-7 -16
-32 -27 -45 -19 -15 9 -10 32 8 43 21 11 44 -4 37 -24z m7576 -95 c-13 -24
-16 -25 -24 -4 -3 8 -2 12 3 9 5 -3 12 -1 16 5 11 19 16 10 5 -10z m-7822 -43
c4 -21 -25 -34 -40 -19 -8 8 -8 16 2 27 16 19 34 15 38 -8z m7902 4 c0 -11 -5
-23 -11 -27 -15 -9 -33 12 -26 30 9 23 37 20 37 -3z m-8012 -68 c-2 -9 -31
-33 -65 -54 -59 -36 -63 -37 -73 -20 -8 17 -2 24 53 55 69 39 90 44 85 19z
m8168 -19 c56 -31 62 -37 52 -54 -10 -15 -16 -17 -32 -8 -17 9 -99 62 -115 74
-6 5 10 24 20 24 6 0 39 -16 75 -36z m-446 -184 c-11 -16 -26 -33 -32 -36 -7
-4 1 9 16 29 34 44 46 50 16 7z m-120 -154 c0 -2 -8 -10 -17 -17 -16 -13 -17
-12 -4 4 13 16 21 21 21 13z m-50 -60 c0 -2 -8 -10 -17 -17 -16 -13 -17 -12
-4 4 13 16 21 21 21 13z m-60 -69 c0 -2 -15 -16 -32 -33 l-33 -29 29 33 c28
30 36 37 36 29z m-6330 -37 c0 -24 -26 -38 -42 -22 -16 16 -2 42 22 42 13 0
20 -7 20 -20z m-102 -117 c2 -23 -2 -34 -16 -42 -44 -23 -85 16 -62 59 9 16
19 20 43 18 28 -3 32 -7 35 -35z m-144 -115 c-5 -7 -19 -21 -31 -31 -19 -15
-22 -25 -17 -51 8 -46 -30 -92 -69 -82 -55 13 -73 59 -41 105 14 20 23 23 61
18 39 -4 46 -2 66 24 22 28 45 40 31 17z m6343 -40 c34 3 43 0 57 -19 22 -31
20 -65 -4 -89 -27 -27 -56 -25 -86 6 -21 20 -25 31 -20 58 5 25 2 37 -14 51
-11 10 -20 23 -20 29 0 6 11 0 23 -14 19 -22 29 -25 64 -22z m-6507 -121 c0
-2 -12 -14 -27 -28 l-28 -24 24 28 c23 25 31 32 31 24z m6601 -14 c13 -16 12
-17 -3 -4 -10 7 -18 15 -18 17 0 8 8 3 21 -13z m-6667 -58 c-7 -17 -20 -20
-28 -6 -7 10 3 21 20 21 8 0 11 -6 8 -15z m6736 -1 c0 -17 -22 -14 -28 4 -2 7
3 12 12 12 9 0 16 -7 16 -16z m-450 2 c0 -2 -8 -10 -17 -17 -16 -13 -17 -12
-4 4 13 16 21 21 21 13z m-6347 -58 c-15 -16 -20 -31 -16 -50 7 -36 -29 -72
-65 -65 -20 4 -35 -2 -57 -21 l-30 -27 27 30 c20 23 25 37 21 58 -8 40 22 70
64 64 23 -4 36 0 49 14 9 10 19 19 22 19 3 0 -4 -10 -15 -22z m6287 8 c0 -2
-8 -10 -17 -17 -16 -13 -17 -12 -4 4 13 16 21 21 21 13z m602 -20 c31 5 38 3
53 -19 10 -16 14 -34 10 -46 -4 -14 3 -33 21 -58 l27 -38 -31 31 c-23 25 -36
31 -56 27 -36 -7 -66 21 -66 62 0 17 -6 37 -12 45 -11 12 -10 12 3 2 9 -6 30
-9 51 -6z m-5438 -115 c3 -5 0 -14 -8 -20 -10 -9 -15 -8 -19 3 -9 22 15 37 27
17z m-1624 -56 c0 -8 -7 -15 -15 -15 -26 0 -18 20 13 29 1 1 2 -6 2 -14z
m7200 -5 c0 -5 -4 -10 -10 -10 -5 0 -10 5 -10 10 0 6 5 10 10 10 6 0 10 -4 10
-10z m92 -77 c16 5 48 -10 48 -23 0 -6 -9 -5 -20 2 -24 15 -44 0 -34 -25 7
-19 35 -22 51 -6 7 7 12 4 16 -11 5 -19 3 -21 -26 -14 -41 8 -57 21 -57 47 0
12 -15 37 -32 57 l-33 35 37 -34 c20 -18 42 -31 50 -28z m-7357 17 c-16 -16
-29 -40 -30 -51 -2 -27 -31 -49 -63 -49 -18 0 -23 4 -18 16 3 9 6 22 6 29 0
21 30 46 49 40 9 -2 29 6 46 20 41 33 45 31 10 -5z m1610 -20 c8 -14 -13 -50
-30 -50 -18 0 -25 21 -13 43 10 19 33 23 43 7z m-122 -205 c-7 -21 -12 -19
-10 4 0 11 5 18 9 15 4 -3 5 -11 1 -19z m4337 5 c0 -5 -2 -10 -4 -10 -3 0 -8
5 -11 10 -3 6 -1 10 4 10 6 0 11 -4 11 -10z m-4374 -99 c-22 -21 -46 0 -26 24
10 12 16 13 27 3 12 -10 12 -13 -1 -27z m4432 16 c4 -22 -27 -35 -38 -16 -10
15 7 42 24 36 6 -2 12 -11 14 -20z m-4485 -93 c7 -7 -57 -139 -72 -148 -5 -3
-14 1 -21 9 -9 11 -4 27 25 79 34 61 51 76 68 60z m4572 -57 c39 -71 42 -82
20 -91 -18 -6 -90 117 -81 139 10 27 25 16 61 -48z m-2305 -392 c0 -8 -4 -15
-9 -15 -13 0 -22 16 -14 24 11 11 23 6 23 -9z m-1110 -40 c20 -24 3 -57 -28
-53 -27 3 -39 26 -28 54 7 18 40 18 56 -1z m2245 -20 c0 -25 -4 -30 -25 -30
-16 0 -26 6 -28 18 -6 30 6 49 30 45 18 -2 23 -9 23 -33z m-755 -116 c0 -39
-4 -69 -10 -69 -6 0 -10 32 -10 76 0 47 4 73 10 69 6 -3 10 -37 10 -76z
m-1210 61 c0 -5 -5 -10 -11 -10 -5 0 -7 5 -4 10 3 6 8 10 11 10 2 0 4 -4 4
-10z m349 -12 c0 -13 -4 -41 -8 -63 -8 -38 -9 -37 -10 23 -1 35 3 62 9 62 6 0
10 -10 9 -22z m96 -45 c-7 -66 -11 -81 -19 -72 -8 8 7 139 17 139 6 0 7 -25 2
-67z m421 41 c60 -59 -23 -146 -89 -94 -36 29 -36 71 -1 99 35 28 59 26 90 -5z
m443 -61 c0 -18 -3 -33 -9 -33 -6 0 -9 27 -9 63 1 49 3 56 9 32 4 -16 8 -45 9
-62z m257 50 c-10 -10 -19 5 -10 18 6 11 8 11 12 0 2 -7 1 -15 -2 -18z m-1476
7 c0 -5 -4 -10 -10 -10 -5 0 -10 5 -10 10 0 6 5 10 10 10 6 0 10 -4 10 -10z
m745 -215 c0 -22 -14 -28 -34 -16 -12 8 -13 12 -1 26 16 20 35 14 35 -10z m13
-127 c19 -19 14 -56 -8 -68 -43 -23 -83 17 -60 60 12 22 49 27 68 8z m19 -220
c39 -37 25 -96 -28 -117 -65 -24 -119 69 -69 119 26 26 68 25 97 -2z m-30
-234 c8 -21 -13 -42 -28 -27 -13 13 -5 43 11 43 6 0 13 -7 17 -16z m-11 -139
c0 -19 -4 -35 -8 -35 -4 0 -8 16 -8 35 0 19 4 35 8 35 4 0 8 -16 8 -35z m-15
-51 c11 -14 13 -14 21 0 5 9 13 16 19 16 5 0 0 -19 -12 -42 -15 -28 -24 -38
-27 -28 -3 8 -11 27 -19 43 -15 29 -4 37 18 11z"/>
<path d="M6235 11326 c-18 -26 -11 -52 16 -67 41 -22 80 31 52 70 -19 28 -49
27 -68 -3z"/>
<path d="M5894 10559 c-521 -55 -1134 -258 -1624 -540 -608 -348 -1077 -797
-1446 -1384 -304 -483 -506 -1010 -599 -1557 -25 -149 -60 -469 -53 -489 2 -5
71 59 153 143 83 84 400 407 705 718 304 311 630 642 724 737 l170 172 -24 43
c-50 88 -19 207 65 256 53 30 159 28 203 -5 l29 -21 389 391 c214 216 648 652
964 970 l575 577 -75 -1 c-41 -1 -111 -5 -156 -10z m-1504 -654 c0 -8 -4 -15
-10 -15 -5 0 -10 7 -10 15 0 8 5 15 10 15 6 0 10 -7 10 -15z m164 -271 c22
-47 7 -66 -23 -28 -11 15 -21 35 -21 45 0 32 25 21 44 -17z m-336 -3 c21 -13
10 -46 -16 -49 -27 -4 -40 22 -22 43 14 17 20 18 38 6z m-551 -522 c8 -8 23 0
59 32 l49 44 -39 -48 c-48 -60 -43 -77 21 -77 26 0 55 -5 63 -10 11 -7 -1 -10
-41 -10 -38 0 -61 -5 -69 -15 -14 -16 -14 -15 55 -95 l30 -35 -40 36 c-69 60
-73 63 -90 49 -11 -9 -15 -34 -16 -84 -1 -54 -3 -64 -9 -41 -4 17 -8 51 -9 76
-2 67 -23 71 -78 17 -52 -51 -57 -44 -7 12 53 58 45 74 -39 78 -85 4 -79 22 8
22 83 0 89 15 32 77 -35 39 -37 44 -12 26 17 -11 39 -30 49 -42 24 -27 46 -12
46 33 0 17 4 56 8 86 l7 55 5 -87 c3 -48 10 -92 17 -99z m803 127 c0 -3 -4 -8
-10 -11 -5 -3 -10 -1 -10 4 0 6 5 11 10 11 6 0 10 -2 10 -4z m-1280 -756 c16
-30 -4 -60 -40 -60 -23 0 -31 5 -36 25 -9 38 2 55 35 55 20 0 34 -7 41 -20z
m390 -160 c0 -5 -5 -10 -11 -10 -5 0 -7 5 -4 10 3 6 8 10 11 10 2 0 4 -4 4
-10z m-676 -265 c-4 -8 -8 -15 -10 -15 -2 0 -4 7 -4 15 0 8 4 15 10 15 5 0 7
-7 4 -15z"/>
<path d="M6580 10424 c80 -81 510 -517 956 -967 l811 -819 34 21 c40 25 122
28 172 7 42 -17 83 -66 98 -115 14 -49 4 -121 -21 -154 l-19 -24 281 -289
c622 -640 1460 -1485 1466 -1479 7 6 -16 241 -39 400 -128 890 -577 1768
-1227 2396 -563 545 -1323 944 -2102 1103 -172 35 -326 56 -450 63 l-105 6
145 -149z m1590 -519 c0 -8 -4 -15 -10 -15 -5 0 -10 7 -10 15 0 8 5 15 10 15
6 0 10 -7 10 -15z m-145 -245 c8 -13 -26 -70 -42 -70 -17 0 -16 14 2 50 16 31
29 37 40 20z m270 -50 c0 -18 -6 -26 -21 -28 -26 -4 -40 24 -23 45 18 21 44
11 44 -17z m610 -477 c8 -34 36 -28 80 17 21 22 44 40 49 40 6 0 -12 -22 -38
-49 -60 -61 -58 -81 11 -81 26 0 55 -5 63 -10 11 -7 0 -10 -37 -10 -98 0 -104
-14 -36 -91 l47 -54 -51 48 c-72 69 -89 59 -93 -58 l-3 -60 -11 79 c-7 50 -16
81 -24 84 -8 2 -37 -18 -65 -44 -54 -52 -47 -34 12 28 47 51 33 68 -57 68 -82
0 -72 13 16 20 38 3 67 10 69 17 3 7 -15 32 -38 58 -52 56 -39 59 17 4 23 -23
47 -39 52 -35 5 3 13 41 18 83 l9 78 2 -55 c2 -30 5 -65 8 -77z m513 -650 c6
-10 6 -28 1 -40 -14 -39 -79 -25 -79 17 0 38 61 56 78 23z"/>
<path d="M6338 10487 l-67 -72 -69 68 -69 68 -960 -967 -961 -967 20 -45 c41
-91 1 -204 -85 -243 -54 -24 -123 -24 -170 0 l-36 19 -728 -742 c-401 -407
-799 -812 -885 -900 -183 -183 -184 -186 -113 -256 l45 -44 -51 -52 -52 -53
174 -179 c96 -99 453 -465 794 -814 341 -348 662 -677 714 -730 l94 -97 27 20
c33 25 102 41 138 33 127 -30 189 -161 128 -270 l-27 -48 128 -130 c70 -72
229 -234 353 -361 1318 -1346 1427 -1455 1454 -1455 17 0 41 18 77 55 l53 56
56 -56 c42 -41 63 -55 85 -55 34 0 -11 -45 960 950 368 377 739 755 823 841
l154 157 -23 31 c-14 20 -24 49 -27 85 -8 100 53 179 155 201 38 8 101 -8 134
-33 l24 -19 244 251 c260 267 574 587 966 986 132 135 314 321 405 413 l164
168 -54 54 -54 54 46 44 c81 76 131 15 -708 868 -407 415 -801 817 -876 893
l-135 139 -47 -23 c-93 -45 -202 -10 -248 81 -24 46 -23 125 2 173 l19 39
-171 176 c-331 339 -1743 1761 -1748 1760 -3 0 -35 -33 -72 -72z m-52 -158
c10 -17 -13 -36 -27 -22 -12 12 -4 33 11 33 5 0 12 -5 16 -11z m5 -129 c24
-13 26 -65 3 -74 -32 -12 -55 -6 -66 19 -9 21 -8 28 7 45 21 23 29 24 56 10z
m-6 -195 c0 -28 -29 -25 -33 3 -3 19 0 23 15 20 10 -2 18 -12 18 -23z m0 -144
c7 -12 -12 -24 -25 -16 -11 7 -4 25 10 25 5 0 11 -4 15 -9z m-5 -162 c0 -5 -4
-9 -10 -9 -5 0 -10 7 -10 16 0 8 5 12 10 9 6 -3 10 -10 10 -16z m5 -79 c0 -27
-22 -39 -31 -16 -8 22 3 49 19 43 6 -2 12 -14 12 -27z m21 -155 c11 -43 -34
-73 -64 -43 -13 13 -16 50 -5 61 3 4 19 7 34 7 22 0 30 -6 35 -25z m54 -187
c93 -28 164 -112 186 -218 l11 -55 59 -8 c517 -68 1043 -326 1433 -702 193
-186 335 -369 465 -596 163 -285 284 -637 327 -950 l12 -87 44 -6 c113 -15
198 -87 229 -192 28 -96 -11 -201 -98 -267 -19 -15 -65 -34 -103 -44 l-69 -18
-13 -105 c-42 -333 -193 -738 -389 -1038 -180 -276 -448 -557 -699 -733 -162
-113 -381 -231 -560 -302 -172 -68 -429 -135 -582 -153 -63 -7 -63 -7 -63 -39
0 -100 -91 -220 -190 -249 -30 -9 -70 -16 -90 -16 -137 0 -263 111 -277 243
l-6 55 -52 6 c-335 39 -771 203 -1075 405 -616 408 -1055 1085 -1162 1791
l-23 150 -35 0 c-46 1 -117 33 -158 73 -48 46 -74 102 -80 173 -9 115 67 231
176 268 25 9 57 16 71 16 26 0 26 2 48 148 97 638 462 1244 993 1647 354 268
802 462 1195 517 l100 14 6 44 c27 182 189 282 369 228z m-3460 -2818 c43 -43
10 -114 -51 -112 -90 2 -89 132 1 132 17 0 39 -9 50 -20z m6842 3 c24 -22 23
-75 -2 -98 -44 -40 -120 -7 -120 51 0 54 80 85 122 47z m-7317 -48 c0 -26 -3
-30 -29 -30 -36 0 -56 26 -36 50 8 9 24 15 39 13 22 -2 26 -8 26 -33z m6889
12 c15 -24 -18 -58 -36 -38 -9 9 -9 12 -1 7 19 -10 28 16 10 29 -9 7 -14 15
-10 19 10 9 25 2 37 -17z m856 8 c18 -22 3 -55 -25 -55 -29 0 -47 27 -34 52
12 22 42 23 59 3z m-7507 -9 c3 -8 -3 -22 -14 -32 -18 -16 -21 -16 -36 -2 -9
9 -13 24 -10 32 8 20 53 21 60 2z m412 -11 c0 -23 -34 -33 -46 -14 -10 17 9
41 30 37 9 -2 16 -12 16 -23z m202 9 c7 -19 -21 -51 -31 -35 -4 6 0 11 9 11 9
0 15 6 12 13 -2 6 -11 11 -20 11 -9 -1 -14 2 -11 7 9 15 34 10 41 -7z m6230 0
c3 -8 -2 -23 -11 -32 -15 -15 -17 -15 -32 0 -21 21 -11 48 16 48 11 0 23 -7
27 -16z m431 -6 c5 -26 -33 -42 -53 -22 -12 13 -13 19 -4 31 16 18 53 13 57
-9z m-7411 -14 c-9 -9 -28 6 -21 18 4 6 10 6 17 -1 6 -6 8 -13 4 -17z m7505 4
c-6 -6 -16 -7 -22 -3 -9 6 -9 9 1 16 17 10 34 0 21 -13z m-6852 8 c0 -3 -4 -8
-10 -11 -5 -3 -10 -1 -10 4 0 6 5 11 10 11 6 0 10 -2 10 -4z m3171 -3301 c38
-20 76 -69 89 -113 13 -47 13 -82 0 -82 -5 0 -10 7 -10 16 0 9 -10 32 -22 52
-39 63 -142 90 -215 56 -36 -18 -83 -77 -83 -106 0 -10 -5 -18 -11 -18 -19 0
-3 96 22 136 45 73 150 100 230 59z m-61 -440 c0 -19 -20 -29 -32 -17 -15 15
-2 43 17 36 8 -3 15 -12 15 -19z m10 -140 c15 -18 10 -45 -12 -59 -33 -20 -69
20 -54 60 7 18 50 18 66 -1z"/>
<path d="M5898 8979 c-344 -50 -739 -208 -1063 -424 -409 -273 -732 -654 -934
-1103 -88 -198 -167 -465 -195 -667 l-13 -97 24 -9 c13 -5 29 -9 34 -9 21 0
86 -40 116 -72 37 -39 72 -111 73 -150 l0 -28 1020 0 1020 0 0 20 c0 22 -35
354 -45 428 l-6 42 -369 0 c-427 0 -390 -11 -390 115 0 126 -38 115 395 115
l375 0 5 23 c11 48 244 1455 250 1512 l7 60 -51 24 c-28 13 -67 42 -87 63 -37
41 -74 116 -74 149 0 21 -4 21 -92 8z"/>
<path d="M6537 8933 c-20 -73 -69 -131 -142 -169 l-57 -29 7 -50 c15 -118 235
-1459 250 -1522 l5 -23 375 0 c333 0 375 -2 383 -16 12 -22 2 -197 -12 -206
-6 -4 -174 -8 -373 -8 -200 0 -363 -3 -363 -7 0 -5 -11 -100 -25 -213 -14
-113 -25 -220 -25 -237 l0 -33 1019 0 1019 0 10 43 c6 24 25 62 41 85 31 42
121 102 154 102 10 0 20 7 24 16 8 21 -22 201 -59 354 -123 510 -428 1008
-826 1351 -379 325 -867 549 -1343 613 l-46 7 -16 -58z"/>
<path d="M6230 8724 c0 -20 -73 -473 -159 -984 -54 -322 -96 -588 -94 -592 5
-9 577 -11 585 -3 5 6 -2 51 -71 455 -27 162 -77 468 -111 680 -33 212 -62
400 -65 418 -6 30 -9 32 -45 32 -22 0 -40 -3 -40 -6z"/>
<path d="M5964 6868 c3 -24 13 -108 21 -188 24 -224 29 -253 43 -258 6 -2 12
4 12 15 0 10 11 41 24 69 92 197 372 169 429 -44 6 -23 16 -41 22 -39 9 3 62
382 64 460 l1 27 -311 0 -310 0 5 -42z"/>
<path d="M3936 6366 c-14 -90 -101 -184 -195 -209 l-43 -12 7 -70 c15 -162 83
-423 156 -608 299 -751 916 -1323 1679 -1559 113 -34 283 -74 360 -83 30 -3
63 -9 73 -11 13 -4 17 1 17 18 0 53 61 149 120 191 l25 17 -22 40 c-13 21 -23
44 -23 50 0 18 172 271 182 268 4 -2 48 -63 97 -137 l89 -134 -24 -38 c-13
-21 -24 -42 -24 -46 0 -5 14 -17 30 -28 40 -26 88 -98 103 -152 11 -41 13 -43
50 -43 71 0 287 50 453 104 249 83 499 208 698 350 584 418 977 1057 1080
1755 8 57 13 107 11 111 -3 4 -20 11 -38 14 -89 17 -181 116 -193 207 l-7 49
-1023 0 c-813 0 -1024 -3 -1024 -12 0 -42 -133 -1064 -193 -1483 -57 -398 -75
-500 -87 -500 -8 0 -17 14 -21 36 -22 103 -160 1086 -199 1414 -11 99 -31 261
-43 360 l-22 180 -1021 3 -1022 2 -6 -44z"/>
<path d="M6020 6380 c0 -99 167 -1364 239 -1810 7 -43 8 -44 14 -15 19 80 140
960 197 1420 57 464 54 435 41 435 -6 0 -11 -10 -11 -22 0 -38 -45 -121 -83
-155 -59 -51 -160 -69 -231 -39 -77 32 -146 126 -146 198 0 10 -4 18 -10 18
-5 0 -10 -14 -10 -30z"/>
<path d="M2813 6458 c-34 -44 -14 -98 37 -98 43 0 67 38 48 77 -15 31 -67 44
-85 21z"/>
<path d="M9650 6455 c-16 -20 -16 -61 0 -80 21 -25 72 -15 89 16 13 24 13 29
-2 53 -20 30 -67 36 -87 11z"/>
<path d="M2140 6520 c0 -5 5 -10 10 -10 6 0 10 5 10 10 0 6 -4 10 -10 10 -5 0
-10 -4 -10 -10z"/>
<path d="M10655 6250 l-110 -110 -72 72 c-46 46 -76 69 -82 63 -5 -6 -15 -75
-21 -155 -53 -704 -310 -1432 -713 -2025 -154 -227 -276 -375 -476 -578 -260
-265 -481 -442 -786 -631 -162 -101 -416 -231 -595 -306 -355 -149 -868 -280
-1210 -311 -89 -8 -141 -17 -152 -27 -16 -13 -13 -19 42 -81 l60 -66 -102
-102 c-57 -57 -98 -103 -93 -104 60 -3 239 5 355 17 799 82 1569 381 2220 862
392 290 729 630 998 1010 444 624 737 1384 828 2142 16 140 33 440 24 440 -3
0 -55 -49 -115 -110z m-797 -2117 c5 -18 -23 -16 -39 3 -11 14 -10 15 11 12
13 -1 25 -9 28 -15z m152 -88 c0 -21 -17 -27 -40 -15 -22 12 -27 36 -7 43 17
6 47 -11 47 -28z m-822 -733 c3 -20 0 -23 -20 -20 -15 2 -24 11 -26 26 -3 20
0 23 20 20 15 -2 24 -11 26 -26z m128 -87 c29 -44 -11 -89 -58 -64 -25 13 -25
76 0 82 34 9 42 7 58 -18z m-1058 -563 c2 -7 -3 -12 -12 -12 -9 0 -16 7 -16
16 0 17 22 14 28 -4z m90 -155 c2 -19 -1 -27 -13 -27 -19 0 -30 24 -21 46 9
23 31 11 34 -19z"/>
<path d="M10345 6239 c-5 -10 -303 -316 -660 -680 -358 -365 -744 -760 -857
-877 l-206 -213 19 -42 c57 -127 -28 -262 -166 -261 -28 0 -65 8 -84 18 l-34
18 -161 -163 c-182 -185 -862 -879 -1375 -1404 -388 -398 -372 -366 -176 -345
221 24 596 111 880 205 856 283 1621 866 2125 1620 120 180 185 293 285 496
225 458 356 910 410 1414 18 162 18 242 0 214z m-900 -1849 c0 -29 -4 -36 -23
-38 -43 -6 -69 37 -40 66 7 7 24 12 38 10 21 -3 25 -8 25 -38z m-580 -522 c9
-90 23 -94 94 -26 l55 53 -54 -63 c-40 -47 -50 -66 -41 -75 6 -6 46 -14 89
-17 42 -4 61 -8 41 -8 -74 -4 -128 -15 -133 -29 -3 -8 13 -34 37 -61 l42 -47
-47 42 c-71 64 -75 59 -91 -107 -3 -22 -4 -14 -5 21 -3 83 -12 119 -30 119 -9
0 -39 -21 -66 -47 l-50 -48 47 57 c28 33 45 62 41 71 -5 14 -57 25 -133 29
-20 0 -1 4 41 8 109 9 113 16 48 92 l-53 63 54 -52 c30 -29 62 -53 71 -53 17
0 27 42 29 125 2 58 5 46 14 -47z m-635 -128 c0 -5 -5 -10 -11 -10 -5 0 -7 5
-4 10 3 6 8 10 11 10 2 0 4 -4 4 -10z m37 -546 c8 -21 -19 -46 -40 -38 -17 6
-23 35 -10 47 12 13 44 7 50 -9z m-257 -86 c23 -38 25 -58 7 -58 -12 0 -47 59
-47 80 0 21 21 9 40 -22z m98 -179 c-2 -6 -8 -10 -13 -10 -5 0 -11 4 -13 10
-2 6 4 11 13 11 9 0 15 -5 13 -11z"/>
<path d="M2175 6173 c4 -37 13 -129 21 -203 87 -809 454 -1635 1010 -2270 482
-551 1116 -974 1810 -1206 266 -89 600 -166 866 -199 215 -28 221 -48 -72 250
-140 143 -563 574 -939 958 -512 523 -688 696 -700 691 -59 -25 -100 -35 -128
-31 -55 9 -104 39 -134 80 -24 33 -29 50 -29 96 0 36 7 70 19 95 l20 37 -402
412 c-754 771 -1327 1352 -1337 1355 -7 3 -9 -20 -5 -65z m1015 -1758 c10 -12
10 -21 2 -40 -19 -40 -82 -29 -82 15 0 37 55 55 80 25z m515 -615 c12 -10 25
-4 67 31 l53 43 -42 -45 c-68 -71 -57 -87 62 -90 l60 -2 -82 -9 c-101 -12
-106 -24 -35 -101 l47 -52 -54 48 c-72 64 -85 60 -89 -26 -4 -83 -22 -80 -22
4 0 77 -15 84 -78 33 l-47 -37 38 39 c52 56 50 80 -9 88 -26 3 -63 7 -83 8
-20 1 0 4 44 7 97 7 104 20 48 83 -37 42 -24 38 29 -11 23 -20 30 -22 43 -11
8 7 15 27 15 44 0 17 4 49 8 71 6 36 7 33 10 -32 2 -47 8 -75 17 -83z m135
-291 c0 -5 -4 -9 -10 -9 -5 0 -10 7 -10 16 0 8 5 12 10 9 6 -3 10 -10 10 -16z
m490 -315 c11 -12 11 -18 -2 -30 -18 -18 -48 -8 -48 15 0 33 28 42 50 15z
m233 -60 c9 -9 -36 -84 -50 -84 -18 0 -16 20 7 58 19 31 30 38 43 26z m522
-154 c3 -5 1 -10 -4 -10 -6 0 -11 5 -11 10 0 6 2 10 4 10 3 0 8 -4 11 -10z
m-635 -48 c0 -13 -12 -22 -22 -16 -10 6 -1 24 13 24 5 0 9 -4 9 -8z m-50 -82
c0 -5 -5 -10 -11 -10 -5 0 -7 5 -4 10 3 6 8 10 11 10 2 0 4 -4 4 -10z"/>
<path d="M6120 2250 c0 -5 4 -10 9 -10 6 0 13 5 16 10 3 6 -1 10 -9 10 -9 0
-16 -4 -16 -10z"/>
<path d="M6398 2248 c9 -9 15 -9 24 0 9 9 7 12 -12 12 -19 0 -21 -3 -12 -12z"/>
<path d="M790 6435 c-25 -30 14 -74 53 -59 41 15 26 74 -18 74 -12 0 -28 -7
-35 -15z"/>
<path d="M2527 2513 c-4 -3 -7 -15 -7 -25 0 -29 44 -20 48 10 3 16 -2 22 -16
22 -10 0 -22 -3 -25 -7z"/>
</g>
</svg>
